<?xml version="1.0" encoding="UTF-8" standalone="no"?>
<!-- Created with Inkscape (http://www.inkscape.org/) -->

<svg
   width="28.519545mm"
   height="33.417389mm"
   viewBox="0 0 28.519545 33.417389"
   version="1.1"
   id="svg1"
   inkscape:export-filename="message.png"
   inkscape:export-xdpi="96"
   inkscape:export-ydpi="96"
   inkscape:version="1.4 (86a8ad7, 2024-10-11)"
   sodipodi:docname="message.svg"
   xmlns:inkscape="http://www.inkscape.org/namespaces/inkscape"
   xmlns:sodipodi="http://sodipodi.sourceforge.net/DTD/sodipodi-0.dtd"
   xmlns="http://www.w3.org/2000/svg"
   xmlns:svg="http://www.w3.org/2000/svg">
  <sodipodi:namedview
     id="namedview1"
     pagecolor="#505050"
     bordercolor="#ffffff"
     borderopacity="1"
     inkscape:showpageshadow="0"
     inkscape:pageopacity="0"
     inkscape:pagecheckerboard="1"
     inkscape:deskcolor="#505050"
     inkscape:document-units="mm"
     inkscape:zoom="0.74475309"
     inkscape:cx="-228.93494"
     inkscape:cy="154.41359"
     inkscape:window-width="1920"
     inkscape:window-height="1009"
     inkscape:window-x="-8"
     inkscape:window-y="-8"
     inkscape:window-maximized="1"
     inkscape:current-layer="layer1" />
  <defs
     id="defs1" />
  <g
     inkscape:label="Capa 1"
     inkscape:groupmode="layer"
     id="layer1"
     transform="translate(-110.41045,-43.051437)">
    <path
       style="fill:#fdfdfd;fill-opacity:1;stroke:#000000;stroke-width:0.215332px;stroke-linecap:butt;stroke-linejoin:miter;stroke-opacity:1"
       d="M 110.60486,55.429656 115.8805,76.316877 138.81338,65.7656 137.09072,51.984341 128.15443,62.427952 Z"
       id="path8130"
       sodipodi:nodetypes="cccccc" />
    <path
       style="fill:#d2ddf7;fill-opacity:1;stroke:#000000;stroke-width:0.215332px;stroke-linecap:butt;stroke-linejoin:miter;stroke-opacity:1"
       d="m 110.60486,55.429658 11.8971,-11.520274 c 1.35462,-1.14272 2.48313,-0.815816 3.55299,-0.107665 l 11.03577,8.182622 -8.93629,10.443613 z"
       id="path8149"
       sodipodi:nodetypes="cccccc" />
    <path
       sodipodi:nodetypes="ccccccc"
       id="path8132-0"
       d="m 116.5752,75.726858 -0.94839,-1.464693 10.4205,-13.408646 c 0.81086,-1.024627 1.7235,-1.835147 3.55914,-0.704216 l 8.83125,4.986608 0.0592,0.686787 z"
       style="display:inline;fill:none;stroke:#000000;stroke-width:0.622598;stroke-linecap:butt;stroke-linejoin:miter;stroke-miterlimit:4;stroke-dasharray:none;stroke-opacity:1" />
    <path
       style="fill:#d2ddf7;fill-opacity:1;stroke:#000000;stroke-width:0.215332px;stroke-linecap:butt;stroke-linejoin:miter;stroke-opacity:1"
       d="m 115.8805,76.316879 -0.36546,-1.226784 10.84873,-14.293674 c 0.81086,-1.024628 1.72351,-1.835147 3.55914,-0.704216 l 8.83125,4.986608 0.0592,0.686787 z"
       id="path8132"
       sodipodi:nodetypes="ccccccc" />
    <path
       style="fill:#15578b;fill-opacity:1;stroke:none;stroke-width:0.0406927;stroke-linecap:butt;stroke-linejoin:miter;stroke-miterlimit:4;stroke-dasharray:none;stroke-opacity:1"
       d="m 126.5998,50.441988 v -1.06584 h 1.14198 l -0.26646,4.948542 c 0.16148,0.578166 0.68496,1.319226 1.82716,-0.304525 1.24617,-5.429005 -1.98709,-7.184824 -4.87241,-7.194421 -3.65487,0.302505 -6.99125,5.501172 -1.9033,10.277743 3.37677,2.468328 6.00009,0.528419 7.27056,-0.989707 0.28422,-0.1218 0.47973,-0.14223 0.26646,0.304524 -2.11494,2.442497 -5.97778,3.340514 -8.75511,0.989708 -5.58534,-5.444038 -0.66978,-11.160533 2.81687,-11.229383 6.81746,-0.01883 6.30873,6.84824 5.55759,8.06993 -1.32747,1.994252 -2.80304,1.177499 -3.19753,0.07613 -1.07517,2.861423 -3.55923,1.340672 -3.92077,-0.07613 -0.6924,-2.531166 0.48276,-4.141392 1.78909,-4.758215 1.09005,-0.465148 1.88259,0.06541 2.21971,0.954024 l -0.4901,0.08564 c -0.93089,-1.482839 -1.53705,-0.340501 -1.69741,0.162335 -0.42708,0.953532 -0.63004,3.305175 -0.10768,4.239353 0.76934,0.910553 1.151,0.27045 1.57462,-0.201874 0.84013,-2.016896 0.59333,-3.085176 0.23722,-4.195614 z"
       id="path8151"
       sodipodi:nodetypes="cccccccccccccccccccccc" />
  </g>
</svg>
